<?xml version="1.0" encoding="UTF-8"?>
<svg id="Camada_1" data-name="Camada 1" xmlns="http://www.w3.org/2000/svg" viewBox="0 0 751.31 249.35">
  <defs>
    <style>
      .cls-1 {
        fill: #d3ff33;
      }
    </style>
  </defs>
  <path class="cls-1" d="M73.28,104.85c-2.14.12-4.33.39-6.5.32-4.37-.14-8.87.03-13.06-.84-8.09-1.68-13.01-7.21-12.88-13.43.14-6.45,5.63-12.2,14.02-13.23,5.85-.72,11.97-.26,17.93.11,7.15.45,14.25,1.37,21.37,2.09,6.47.65,11.59-1.27,16.14-5.21,7.73-6.69,15.86-13.05,23.77-19.59,1.74-1.44,3.25-3.08,5.74-5.46-2.96-.53-4.62-1.09-6.27-1.08-23.41.17-46.05-3.55-68.32-9.25-1.11-.28-2.22-.56-3.34-.78-6.93-1.38-8.35-.75-10.48,5.12-2.65,7.31-8,12.32-17.2,13.5-9.14,1.17-16.17-2.36-21.65-8.23-1.41-1.51-2.81-3.22-3.44-5.02C5.97,34.96,2.27,26.11.32,17.01-1.71,7.56,6.25.19,17.74,0c4.75-.08,9.75.69,14.27,1.98,9.85,2.82,19.54,6.07,29.15,9.43,37.8,13.23,76.59,15.92,116.34,7.65,5.55-1.15,10.81-3.39,16.07-5.38,5.69-2.16,11.09-4.9,16.87-6.84,3.55-1.19,7.64-2.05,11.41-1.87,9.26.43,13.84,8.66,8.38,14.93-1.96,2.25-5.01,4-7.93,5.46-4.37,2.18-9.05,3.9-13.61,5.81-12.29,5.14-23.62,11.5-33.95,19.08-10.45,7.67-20.84,15.4-31.2,23.16-2,1.5-3.73,3.24-5.58,4.87.17.41.34.82.51,1.23,1.88,0,3.84.3,5.61-.06,5.17-1.05,10.24-2.44,15.39-3.58,5.82-1.28,11.63-2.6,17.53-3.58,5.55-.92,11.09-.4,16.4,1.31,8.3,2.68,13.44,7.62,14.19,15.11.75,7.55-3.72,13.01-11.22,16.81-4.7,2.38-9.96,3.32-15.37,2.61-4.79-.63-9.58-1.46-14.19-2.68-15.24-4.04-30.81-5.17-46.68-4.49-4.86.21-9.21,1.28-12.33,4.51-8.29,8.59-16.46,17.27-24.68,25.92-.14.15-.25.33-.37.49-5.03,6.39-2.2,7.63,4.71,8.48,28.69,3.54,54.84,12.65,78.05,27.27,17.02,10.73,33.76,21.77,50.43,32.88,5.05,3.37,9.61,7.3,14.03,11.26,4.83,4.31,8.14,9.41,9.18,15.38,2.4,13.8-11.87,24.81-28.08,21.65-6.91-1.35-12.96-4.2-18.48-7.79-7.13-4.64-14.04-9.52-21.14-14.19-18.78-12.31-37.35-24.88-58.03-34.96-10.02-4.88-20.3-9.31-31.52-12.05-12.07-2.95-23.73-2.56-35.12,2.22-3.91,1.64-8.05,3.05-12.26,4.03-8.87,2.06-17.17,1.23-23.35-5.15-5.9-6.08-5.62-12.87-2.18-19.77,4.07-8.15,11.51-13.97,19.41-19.44,1.96-1.36,4.01-2.65,6.16-3.79,14.24-7.62,25.23-18.18,36.61-28.38.94-.84,1.64-1.86,2.35-2.85.17-.26-.07-.72-.21-1.83Z"/>
  <path class="cls-1" d="M332.11,94.29c-.49.49-2.2,2.06-4.71,3.73-1.55,1.03-26.44,16.32-52.77,27.64-18.44,7.92-37.53,14.12-48.39,17.43-.04,5.39.91,10.89,3.02,16.52.54,1.43,1.31,2.86,2.27,4.13,3.28,4.33,9,5.57,14.7,3.25,4.57-1.86,7.67-4.93,9.9-8.48,2.54-4.04,4.66-8.26,6.92-12.42,2.75-5.08,6.33-9.66,12.19-12.81,10.93-5.88,24.47-2.79,29.3,6.64,2.11,4.12,2.28,8.42-.03,12.37-2.21,3.79-4.83,7.61-8.28,10.7-7.29,6.53-15,12.8-23.02,18.75-4.09,3.03-8.93,5.67-13.97,7.58-14.48,5.49-29.61,2.46-39.53-7.65-2.54-2.59-4.62-5.54-6.4-8.52-4.9-8.2-7.97-19.85-8.04-31.47.61-11.71,4.76-25.16,13.52-37.46,6.41-9.01,15.5-15.13,25.97-18.01,6.97-1.91,30.61-2.9,48.81-5.99,9.16-1.55,12.48-4.38,20.47-6.6,7.27-1.86,14.96.6,18.92,5.39,3.76,4.55,3.8,10.62-.84,15.27ZM273.31,95.92c-16.34-.04-30.21,6.29-38.52,19.9-2.86,4.68-5.06,9.43-6.52,14.27,9.19-2.08,22.09-5.52,33.31-10.41,21.85-9.51,37.51-23.7,11.73-23.77Z"/>
  <path class="cls-1" d="M435.74,196.65c-7.49,8.71-20.71,8.9-29.61,3.4-6.13-3.8-9.26-8.89-10.35-14.77-.97-5.24-.29-10.46,1.42-15.55,5.87-15.51,27.91-22.67,31.05-47.08,2.13-13.89-6.36-20.33-24.57-14.08-17.2,5.91-27.8,19.22-31.95,28.69-3.32,4.57-1.66,30.77-11.78,45.3-4.6,6.61-17.77,13.15-27.92,10.05-9.37-2.85-14.23-10.28-11.6-16.95,4.28-10.84,25.82-24.15,28.9-40.49,4.35-23.06-8.89-40.16-.75-49.42,6.12-6.97,13.83-7.06,21.55-1.2,11.29,8.57,5.07,22.77,2.96,28.37-.63,1.69,2.12,2.87,3.71,1.59,9.55-7.73,27.1-21.77,31.9-24.37,4.38-2.38,9.67-4.15,14.89-5.19,12.94-2.59,24.91,2.05,30.41,11.25.98,1.65,1.77,3.4,2.28,5.16,3.3,13.54-16.62,27.63-18.27,35.62-7.9,24.5,16.63,37.68-2.27,59.66Z"/>
  <path class="cls-1" d="M511.22,115.16c-1.47,1.09-3.01,2.12-4.42,3.27-24.51,20.05-6.63,37.54-10.34,60.13-.84,5.16-4.92,9.98-11.41,12.5-3.93,1.52-8.31,2.15-12.74,1.71-9.49-.94-16.29-5.95-18.06-13.32-.22-.9-.31-1.82-.3-1.8-.64-5.39.67-9.68,2.81-13.87,3.38-6.6,7.67-10.62,14.07-18.34,13.85-16.52,11.52-40.67,12.67-46.01.85-3.98,2.81-7.62,6.81-10.64,5.52-4.16,12.27-5.58,19.62-3.89,16.73,4.31,17.86,18.05,1.29,30.25Z"/>
  <path class="cls-1" d="M746.71,44.73c-5.99,6.76-14.8,9.63-24.66,10.73-6.99.78-14.09.44-21.02-.61-10.98-1.67-32.87-5.44-54.84-4.01-1.78,2.99-3.71,6.29-5.85,10.06-13.37,23.49-18.71,45.08-13,46.38,13.82,1.62,20.91-15.88,48.48-21.47,12.02-1.12,17.57,4.03,18.65,12.75.47,3.8-.29,7.77-.92,11.56-.65,3.93-1.47,7.84-2.42,11.72-2.98,12.28-3.23,24.58-1.73,36.99.6,4.97.33,10.11-.39,15.08-.74,5.11-3.73,9.54-8.32,13.14-11.46,8.98-30.2,6.39-37.48-5.26-4.05-6.48-4.39-13.33-2.4-20.31,2.82-9.92,7.48-19.26,13.48-28.08,3.74-5.48,8.14-10.64,12.16-15.99,2.42-3.2,4.86-6.4,6.95-9.76.43-.69.7-1.44.93-2.29.65-2.36-1.99-4.72-4.7-3.87-.01,0-.03,0-.04.01-3.13,1.03-6.02,2.63-8.87,4.14-12.21,6.46-23.32,14.3-32.7,23.5-9.75,9.57-18.85,19.6-28.1,29.53-3.71,3.98-6.9,8.32-10.71,12.24-1.84,1.89-4.3,3.67-6.94,4.64-6.5,2.41-12.52-1.32-11.87-7.16.24-2.18,1.17-4.3,1.76-6.45,4.68-17.04,33.26-78.95,45.37-102.93.46-.91.92-1.89,1.39-2.92-8.58,3.08-16.34,7.66-22.43,14.36-13.2,14.53-30.05,56.75-36.99,88.97-2.44,11.34.43,28.1-4.64,40.91-4.62,11.68-16.7,20.05-28.57,18.6-23.7-2.9-22.94-19.97-10.73-34.39,7.88-9.31,24.87-27.36,32.36-46.02,8.5-21.17,31.3-80.56-16.65-75.78-16.54-1.3-17.72-19.2,13.28-18.21,15.61-1.21,15.81-4.79,19-14.88,1.39-4.42,6.84-25.08,19.78-25.07,30.56-.72-12.94,38.16,43.4,32.12,4.7-11.78,10.11-23.79,16.94-29.31,20.76-16.77,38.4-.15,27.96,10.41-4.21,4.26-7.54,7.66-10.86,11.64,13.48-3.66,28.18-8.21,36.8-12.11,7.54-3.42,15.91-4.84,24.52-4.87,7.85-.02,15.08,1.62,21.15,6.06,9.21,6.74,10.75,17.99,3.46,26.21Z"/>
</svg>
